<?xml version="1.0" encoding="UTF-8" standalone="no"?>
<!-- Created with Inkscape (http://www.inkscape.org/) -->

<svg
   xmlns:dc="http://purl.org/dc/elements/1.1/"
   xmlns:cc="http://creativecommons.org/ns#"
   xmlns:rdf="http://www.w3.org/1999/02/22-rdf-syntax-ns#"
   xmlns:svg="http://www.w3.org/2000/svg"
   xmlns="http://www.w3.org/2000/svg"
   xmlns:sodipodi="http://sodipodi.sourceforge.net/DTD/sodipodi-0.dtd"
   xmlns:inkscape="http://www.inkscape.org/namespaces/inkscape"
   width="7.5217042mm"
   height="6.1981249mm"
   viewBox="0 0 7.5217042 6.1981249"
   version="1.1"
   id="svg5409"
   inkscape:version="0.92.1 r15371"
   sodipodi:docname="project.svg"
   inkscape:export-filename="x:\dev\sayless\artwork\project.png"
   inkscape:export-xdpi="98.352325"
   inkscape:export-ydpi="98.352325">
  <defs
     id="defs5403">
    <clipPath
       clipPathUnits="userSpaceOnUse"
       id="clipPath3834">
      <rect
         style="opacity:0.6457142;fill:#155293;fill-opacity:1;stroke:none"
         id="rect3836"
         width="116.00004"
         height="31.5"
         x="6"
         y="941.36218"
         rx="4"
         ry="4" />
    </clipPath>
    <linearGradient
       id="linearGradient4702">
      <stop
         style="stop-color:#e69664;stop-opacity:1;"
         offset="0"
         id="stop4704" />
      <stop
         style="stop-color:#f5d7c4;stop-opacity:1;"
         offset="1"
         id="stop4706" />
    </linearGradient>
  </defs>
  <sodipodi:namedview
     id="base"
     pagecolor="#ffffff"
     bordercolor="#666666"
     borderopacity="1.0"
     inkscape:pageopacity="0.0"
     inkscape:pageshadow="2"
     inkscape:zoom="31.678384"
     inkscape:cx="13.896747"
     inkscape:cy="9.8287804"
     inkscape:document-units="mm"
     inkscape:current-layer="g4741"
     showgrid="false"
     fit-margin-top="0"
     fit-margin-left="0"
     fit-margin-right="0"
     fit-margin-bottom="0"
     inkscape:window-width="1920"
     inkscape:window-height="1147"
     inkscape:window-x="3832"
     inkscape:window-y="-8"
     inkscape:window-maximized="1" />
  <metadata
     id="metadata5406">
    <rdf:RDF>
      <cc:Work
         rdf:about="">
        <dc:format>image/svg+xml</dc:format>
        <dc:type
           rdf:resource="http://purl.org/dc/dcmitype/StillImage" />
        <dc:title></dc:title>
      </cc:Work>
    </rdf:RDF>
  </metadata>
  <g
     inkscape:label="Layer 1"
     inkscape:groupmode="layer"
     id="layer1"
     transform="translate(168.77585,123.08407)">
    <g
       transform="matrix(0.05641278,0,0,0.05641278,-149.35056,-122.8607)"
       id="g4741">
      <path
         sodipodi:nodetypes="ssccssssssccsss"
         id="rect2985"
         d="m -336.34201,-2.35525 c -1.84827,0 -3.2,1.2716586 -3.2,3.19999995 V 4.04475 c 0,23.619253 0,53.229854 0,66.841086 v 25.316053 c 0,2.721387 2.19691,4.909551 4.92905,4.909551 h 113.87525 c 2.73214,0 4.92904,-2.188164 4.92904,-4.909551 V 8.9543393 c 0,-2.7213653 -2.1969,-4.9095893 -4.92904,-4.9095893 h -18.20727 -63.26368 V 0.84474995 c 0,-1.65498666 -1.49315,-3.19999995 -3.2,-3.19999995 z"
         style="display:inline;fill:#e69664;fill-opacity:1;fill-rule:nonzero;stroke:#000000;stroke-width:3.20849276;stroke-miterlimit:4;stroke-dasharray:none;stroke-opacity:1;enable-background:new"
         inkscape:connector-curvature="0" />
      <path
         sodipodi:nodetypes="sssccccccccccsss"
         inkscape:connector-curvature="0"
         id="rect2991"
         d="m -292.07684,15.778105 c -3.46272,0 -4.76139,1.797226 -4.76139,4.54001 0,2.720043 -2.1969,5.059968 -4.92903,5.059968 H -340.592 c -1.23847,0 -2.15001,0.834699 -2.15001,2.149995 v 0.701664 62.46164 10.410558 c 0,1.89686 1.36524,3.2095 3.18754,3.2095 h 123.71246 c 2.27411,0 3.23334,-1.44726 3.23334,-3.16672 V 90.691382 28.229742 20.685315 c 0,-2.720042 -2.1969,-4.90721 -4.92904,-4.90721 z"
         style="display:inline;fill:#e69664;fill-opacity:1;fill-rule:nonzero;stroke:#000000;stroke-width:3.20000005;stroke-miterlimit:4;stroke-dasharray:none;stroke-opacity:1;enable-background:new" />
    </g>
  </g>
</svg>
