<?xml version="1.0" encoding="UTF-8" standalone="no"?>
<!-- Created with Inkscape (http://www.inkscape.org/) -->

<svg
   xmlns:dc="http://purl.org/dc/elements/1.1/"
   xmlns:cc="http://creativecommons.org/ns#"
   xmlns:rdf="http://www.w3.org/1999/02/22-rdf-syntax-ns#"
   xmlns:svg="http://www.w3.org/2000/svg"
   xmlns="http://www.w3.org/2000/svg"
   xmlns:sodipodi="http://sodipodi.sourceforge.net/DTD/sodipodi-0.dtd"
   xmlns:inkscape="http://www.inkscape.org/namespaces/inkscape"
   width="7.5217042mm"
   height="6.1981249mm"
   viewBox="0 0 7.5217042 6.1981249"
   version="1.1"
   id="svg5409"
   inkscape:version="0.92.1 r15371"
   sodipodi:docname="project.svg"
   inkscape:export-filename="x:\dev\sayless\artwork\project.png"
   inkscape:export-xdpi="98.352325"
   inkscape:export-ydpi="98.352325">
  <defs
     id="defs5403">
    <clipPath
       clipPathUnits="userSpaceOnUse"
       id="clipPath3834">
      <rect
         style="opacity:0.6457142;fill:#155293;fill-opacity:1;stroke:none"
         id="rect3836"
         width="116.00004"
         height="31.5"
         x="6"
         y="941.36218"
         rx="4"
         ry="4" />
    </clipPath>
    <linearGradient
       id="linearGradient4702">
      <stop
         style="stop-color:#e69664;stop-opacity:1;"
         offset="0"
         id="stop4704" />
      <stop
         style="stop-color:#f5d7c4;stop-opacity:1;"
         offset="1"
         id="stop4706" />
    </linearGradient>
  </defs>
  <sodipodi:namedview
     id="base"
     pagecolor="#ffffff"
     bordercolor="#666666"
     borderopacity="1.0"
     inkscape:pageopacity="0.0"
     inkscape:pageshadow="2"
     inkscape:zoom="31.678384"
     inkscape:cx="8.6250134"
     inkscape:cy="9.8287804"
     inkscape:document-units="mm"
     inkscape:current-layer="g4741"
     showgrid="false"
     fit-margin-top="0"
     fit-margin-left="0"
     fit-margin-right="0"
     fit-margin-bottom="0"
     inkscape:window-width="1920"
     inkscape:window-height="1147"
     inkscape:window-x="3832"
     inkscape:window-y="-8"
     inkscape:window-maximized="1" />
  <metadata
     id="metadata5406">
    <rdf:RDF>
      <cc:Work
         rdf:about="">
        <dc:format>image/svg+xml</dc:format>
        <dc:type
           rdf:resource="http://purl.org/dc/dcmitype/StillImage" />
        <dc:title />
      </cc:Work>
    </rdf:RDF>
  </metadata>
  <g
     inkscape:label="Layer 1"
     inkscape:groupmode="layer"
     id="layer1"
     transform="translate(168.77585,123.08407)">
    <g
       transform="matrix(0.05641278,0,0,0.05641278,-149.35056,-122.8607)"
       id="g4741">
      <g
         transform="matrix(15.476072,0,0,15.476072,1480.5771,-3181.0489)"
         id="g7115">
        <path
           inkscape:connector-curvature="0"
           style="display:inline;fill:#e69664;fill-opacity:1;fill-rule:nonzero;stroke:#733712;stroke-width:0.18099999;stroke-miterlimit:4;stroke-dasharray:none;stroke-opacity:1;enable-background:new"
           d="m -117.61289,206.27066 c -0.10426,0 -0.18052,0.0717 -0.18052,0.18052 v 0.18052 l 0.31343,5.19884 c 0,0.15352 0.12393,0.27696 0.27806,0.27696 h 6.42402 c 0.15412,0 0.28781,-0.12375 0.27806,-0.27696 l -0.31343,-4.92187 c -0.01,-0.15321 -0.12393,-0.27697 -0.27806,-0.27697 h -1.02712 -3.56888 v -0.18052 c 0,-0.0934 -0.0842,-0.18052 -0.18052,-0.18052 z"
           id="path7111"
           sodipodi:nodetypes="ssccsssssccsss" />
        <path
           style="display:inline;fill:#e69664;fill-opacity:1;fill-rule:nonzero;stroke:#733712;stroke-width:0.18052089;stroke-miterlimit:4;stroke-dasharray:none;stroke-opacity:1;enable-background:new"
           d="m -113.86207,207.29361 c -0.19535,0 -0.26861,0.10139 -0.26861,0.25612 0,0.15344 -0.12393,0.28545 -0.27806,0.28545 h -2.19021 c -0.0699,0 -0.12129,0.0471 -0.12129,0.12128 v 0.0396 l -0.62684,4.11092 c 0,0.10701 0.077,0.18106 0.17982,0.18106 h 6.97896 c 0.12829,0 0.1824,-0.0816 0.1824,-0.17865 l 0.62685,-4.11333 v -0.42561 c 0,-0.15344 -0.12394,-0.27683 -0.27806,-0.27683 z"
           id="path7113"
           inkscape:connector-curvature="0"
           sodipodi:nodetypes="sssccccccccsss" />
      </g>
    </g>
  </g>
</svg>
