<svg width="14" height="13" viewBox="0 0 14 13" fill="none" xmlns="http://www.w3.org/2000/svg">
<circle cx="7" cy="6.5" r="6" stroke="black" stroke-opacity="0.7"/>
<path d="M8.5 4.82315C8.5 5.46838 8.28014 6.24116 7.84043 7.14148C7.40071 8.0418 6.78369 8.99464 5.98936 10L5.5 9.54984C6.08156 8.79957 6.49291 8.13933 6.73404 7.56913C6.97518 7.01393 7.10284 6.50375 7.11702 6.03859H7.05319C6.62766 6.03859 6.28014 5.90354 6.01064 5.63344C5.75532 5.34834 5.62766 4.9732 5.62766 4.50804C5.62766 4.05788 5.75532 3.69775 6.01064 3.42765C6.28014 3.14255 6.62766 3 7.05319 3C7.46454 3 7.80496 3.15756 8.07447 3.47267C8.35816 3.78778 8.5 4.23794 8.5 4.82315Z" fill="black" fill-opacity="0.7"/>
</svg>
