<svg width="13" height="23" viewBox="0 0 13 23" fill="none" xmlns="http://www.w3.org/2000/svg">
<path d="M10.1946 0.655029C9.16129 0.655029 8.38629 1.43003 8.38629 2.46336C8.38629 3.4967 9.24741 4.2717 10.1946 4.2717C11.228 4.2717 12.003 3.4967 12.003 2.46336C12.0891 1.43003 11.228 0.655029 10.1946 0.655029ZM10.1946 9.78281C9.16129 9.78281 8.38629 10.5578 8.38629 11.5911C8.38629 12.6245 9.24741 13.3995 10.1946 13.3995C11.228 13.3995 12.003 12.6245 12.003 11.5911C12.0891 10.5578 11.228 9.78281 10.1946 9.78281ZM10.1946 18.9106C9.16129 18.9106 8.38629 19.6856 8.38629 20.7189C8.38629 21.7523 9.24741 22.5273 10.1946 22.5273C11.228 22.5273 12.003 21.7523 12.003 20.7189C12.0891 19.6856 11.228 18.9106 10.1946 18.9106ZM2.27239 0.655029C1.32516 0.655029 0.46405 1.43003 0.46405 2.46336C0.46405 3.4967 1.32516 4.2717 2.27239 4.2717C3.30572 4.2717 4.08073 3.4967 4.08073 2.46336C4.16684 1.43003 3.30572 0.655029 2.27239 0.655029ZM2.27239 9.78281C1.23905 9.78281 0.46405 10.5578 0.46405 11.5911C0.46405 12.6245 1.32516 13.3995 2.27239 13.3995C3.30572 13.3995 4.08073 12.6245 4.08073 11.5911C4.16684 10.5578 3.30572 9.78281 2.27239 9.78281ZM2.27239 18.9106C1.23905 18.9106 0.46405 19.6856 0.46405 20.7189C0.46405 21.7523 1.32516 22.5273 2.27239 22.5273C3.30572 22.5273 4.08073 21.7523 4.08073 20.7189C4.16684 19.6856 3.30572 18.9106 2.27239 18.9106Z" fill="#666666"/>
</svg>
