<svg width="22" height="28" viewBox="0 0 22 28" fill="none" xmlns="http://www.w3.org/2000/svg">
<g clip-path="url(#clip0)">
<path d="M14.7306 24.3175C14.6812 23.6839 14.5796 23.0552 14.4267 22.4373C15.1755 22.0823 15.8696 21.6276 16.4887 21.0865L16.5141 21.0641C16.9218 20.7053 17.2946 20.3111 17.628 19.8863C17.6844 19.8146 17.7408 19.7431 17.7949 19.6698C17.8776 19.5573 17.9578 19.4436 18.035 19.3273C18.0979 19.2326 18.1568 19.1355 18.2159 19.0384C18.3148 18.876 18.4084 18.7109 18.4964 18.5419C18.5647 18.4109 18.6322 18.2795 18.6937 18.145C18.7436 18.0355 18.7889 17.924 18.8342 17.8121C18.8842 17.689 18.9312 17.5647 18.9751 17.4392C19.0128 17.332 19.0515 17.2256 19.0849 17.1166C19.1512 16.901 19.21 16.6826 19.259 16.461C19.278 16.3748 19.2911 16.2869 19.3074 16.1998C19.3396 16.029 19.3672 15.8571 19.3888 15.6835C19.3999 15.5937 19.4105 15.5041 19.4187 15.4135C19.4411 15.1708 19.4558 14.9264 19.4571 14.6794C19.4571 14.6689 19.4587 14.6588 19.4587 14.6483L19.4587 14.636C19.4587 14.5526 19.4586 14.4652 19.4585 14.3794C19.7288 14.326 19.9789 14.2019 20.1817 14.0205C20.3844 13.8392 20.5321 13.6074 20.6087 13.3504C20.7194 12.986 20.7689 12.6066 20.7554 12.227L20.7567 11.7404C20.7677 9.07813 20.7828 5.43198 18.2281 2.94474C16.528 1.28948 13.9363 0.450195 10.525 0.450195C7.1138 0.450195 4.52209 1.28949 2.82193 2.94474C0.267246 5.43203 0.282333 9.07814 0.293369 11.7405L0.294729 12.227C0.294729 13.8464 1.01365 14.2901 1.59157 14.3862C1.59152 14.4696 1.59142 14.554 1.59142 14.6352V14.6483C1.59142 14.6588 1.59299 14.6689 1.59303 14.6794C1.59432 14.9264 1.60897 15.1708 1.63136 15.4134C1.63957 15.5041 1.65019 15.5937 1.66125 15.6835C1.68291 15.8571 1.7105 16.029 1.74263 16.1997C1.75895 16.2869 1.77209 16.3748 1.79108 16.461C1.84011 16.6826 1.89888 16.901 1.96516 17.1166C1.99857 17.2256 2.03727 17.332 2.07494 17.4391C2.11918 17.5647 2.16615 17.6891 2.21585 17.8121C2.26122 17.924 2.30646 18.0355 2.35642 18.145C2.41775 18.2793 2.48519 18.4104 2.55334 18.5412C2.64154 18.7107 2.73544 18.8761 2.83452 19.039C2.89348 19.1358 2.95217 19.2326 3.01496 19.327C3.0922 19.4435 3.17246 19.5573 3.25518 19.6698C3.30922 19.7431 3.36567 19.8146 3.42208 19.8863C3.75557 20.3113 4.12859 20.7057 4.53642 21.0645L4.56095 21.0861C5.18019 21.6275 5.87438 22.0823 6.6234 22.4373C6.47052 23.0552 6.3689 23.6839 6.3195 24.3175C6.97466 29.656 15.8049 27.8791 14.7306 24.3175ZM10.525 1.67328C19.9145 1.67328 19.494 8.25097 19.494 12.227C19.4994 12.4414 19.4807 12.6557 19.4382 12.8662C19.4388 11.0707 19.1439 9.2866 18.5646 7.58122C18.3048 6.9096 17.8225 6.34052 17.1934 5.96315C16.5643 5.58578 15.8239 5.42143 15.0882 5.49585C13.5721 5.6463 12.049 5.72059 10.525 5.71844C9.00105 5.72059 7.47797 5.6463 5.9619 5.49585C5.22615 5.42143 4.48573 5.58578 3.85662 5.96315C3.22752 6.34052 2.74529 6.9096 2.48547 7.58122C1.90616 9.28664 1.61123 11.0708 1.61181 12.8663C1.56936 12.6558 1.55066 12.4414 1.55605 12.227C1.55603 8.25097 1.1356 1.67328 10.525 1.67328ZM2.85269 14.6483C2.85269 12.7005 2.85413 10.1501 3.66906 8.00383C3.83196 7.5874 4.13234 7.23493 4.52339 7.00132C4.91444 6.76772 5.3742 6.66612 5.83101 6.71234C7.39057 6.86711 8.95733 6.94361 10.525 6.94152C12.0927 6.94361 13.6595 6.86711 15.219 6.71234C15.6758 6.66612 16.1356 6.76772 16.5266 7.00132C16.9177 7.23493 17.2181 7.5874 17.381 8.00383C18.1959 10.1501 18.1973 12.7005 18.1973 14.6483C18.1985 15.626 18.0009 16.5944 17.6159 17.498C17.2309 18.4017 16.6659 19.2229 15.9533 19.9147C15.2408 20.6064 14.3946 21.1552 13.4632 21.5296C12.5317 21.9041 11.5333 22.0968 10.525 22.0968C9.51673 22.0968 8.51832 21.9041 7.58689 21.5296C6.65546 21.1552 5.80927 20.6064 5.09671 19.9147C4.38415 19.2229 3.8192 18.4017 3.43416 17.498C3.04911 16.5944 2.85151 15.626 2.85269 14.6483ZM10.525 23.3201C11.4436 23.3201 12.3566 23.182 13.2315 22.9108C13.4469 23.8883 13.644 25.179 13.3257 25.6813C12.9443 26.2833 11.2537 26.4632 10.5251 26.4632C9.79646 26.4632 8.10577 26.2833 7.72437 25.6813C7.40615 25.179 7.6032 23.8882 7.8186 22.9108C8.69351 23.182 9.6065 23.3201 10.525 23.3201Z" fill="#486BAD"/>
<path d="M10.525 1.67328C19.9145 1.67328 19.494 8.25097 19.494 12.227C19.4994 12.4414 19.4807 12.6557 19.4382 12.8662C19.4388 11.0707 19.1439 9.2866 18.5646 7.58122C18.3048 6.9096 17.8225 6.34052 17.1934 5.96315C16.5643 5.58578 15.8239 5.42143 15.0882 5.49585C13.5721 5.6463 12.049 5.72059 10.525 5.71844C9.00105 5.72059 7.47797 5.6463 5.9619 5.49585C5.22615 5.42143 4.48573 5.58578 3.85662 5.96315C3.22752 6.34052 2.74529 6.9096 2.48547 7.58122C1.90616 9.28664 1.61123 11.0708 1.61181 12.8663C1.56936 12.6558 1.55066 12.4414 1.55605 12.227C1.55603 8.25097 1.1356 1.67328 10.525 1.67328Z" fill="#486BAD"/>
</g>
<defs>
<clipPath id="clip0">
<rect width="21" height="28" fill="white" transform="translate(0.0250244)"/>
</clipPath>
</defs>
</svg>
