<svg width="22" height="29" viewBox="0 0 22 29" fill="none" xmlns="http://www.w3.org/2000/svg">
<g clip-path="url(#clip0)">
<path d="M15.4106 25.2912C15.3612 24.6576 15.2596 24.0289 15.1067 23.4111C15.8556 23.0561 16.5497 22.6014 17.1688 22.0602L17.1942 22.0378C17.6018 21.6791 17.9747 21.2849 18.308 20.8601C18.3644 20.7884 18.4209 20.7169 18.475 20.6435C18.5577 20.5311 18.6378 20.4174 18.715 20.301C18.778 20.2063 18.8369 20.1093 18.896 20.0122C18.9948 19.8497 19.0884 19.6847 19.1764 19.5157C19.2447 19.3846 19.3123 19.2533 19.3737 19.1187C19.4237 19.0092 19.4689 18.8977 19.5143 18.7859C19.5643 18.6628 19.6112 18.5385 19.6552 18.4129C19.6929 18.3057 19.7316 18.1994 19.765 18.0904C19.8313 17.8748 19.89 17.6564 19.9391 17.4348C19.958 17.3486 19.9712 17.2606 19.9875 17.1735C20.0197 17.0028 20.0472 16.8309 20.0689 16.6572C20.0799 16.5674 20.0906 16.4778 20.0988 16.3872C20.1212 16.1446 20.1358 15.9002 20.1371 15.6532C20.1372 15.6427 20.1387 15.6325 20.1387 15.622L20.1387 15.6098L20.1387 15.609C20.1387 15.5256 20.1387 15.4389 20.1386 15.3532C20.4089 15.2998 20.659 15.1757 20.8617 14.9943C21.0645 14.8129 21.2121 14.5812 21.2887 14.3242C21.3994 13.9597 21.4489 13.5804 21.4354 13.2007L21.4368 12.7142C21.4478 10.0519 21.4629 6.40574 18.9082 3.9185C17.208 2.26323 14.6164 1.42395 11.2051 1.42395C7.79385 1.42395 5.20214 2.26325 3.50198 3.9185C0.9473 6.40578 0.962387 10.0519 0.973422 12.7142L0.974782 13.2007C0.974782 14.8201 1.69371 15.2639 2.27163 15.36C2.27157 15.4434 2.27147 15.5278 2.27147 15.609V15.6097V15.622C2.27147 15.6325 2.27305 15.6426 2.27309 15.6531C2.27437 15.9002 2.28903 16.1445 2.31141 16.3872C2.31962 16.4778 2.33024 16.5674 2.3413 16.6572C2.36296 16.8309 2.39055 17.0027 2.42268 17.1735C2.439 17.2606 2.45214 17.3486 2.47113 17.4348C2.52017 17.6564 2.57894 17.8748 2.64522 18.0904C2.67863 18.1994 2.71732 18.3057 2.75499 18.4129C2.79923 18.5385 2.8462 18.6628 2.8959 18.7859C2.94127 18.8977 2.98651 19.0092 3.03647 19.1187C3.0978 19.2531 3.16524 19.3842 3.2334 19.515C3.3216 19.6844 3.41549 19.8499 3.51457 20.0127C3.57354 20.1095 3.63222 20.2064 3.69502 20.3008C3.77226 20.4172 3.85252 20.531 3.93523 20.6435C3.98928 20.7169 4.04573 20.7884 4.10213 20.8601C4.43563 21.285 4.80864 21.6794 5.21648 22.0382L5.24101 22.0599C5.86025 22.6012 6.55444 23.056 7.30346 23.4111C7.15058 24.0289 7.04895 24.6576 6.99955 25.2912C7.65472 30.6298 16.4849 28.8529 15.4106 25.2912ZM11.2051 2.64704C20.5945 2.64704 20.1741 9.22472 20.1741 13.2007C20.1795 13.4151 20.1608 13.6295 20.1183 13.84C20.1189 12.0445 19.8239 10.2604 19.2446 8.55498C18.9848 7.88336 18.5026 7.31428 17.8735 6.9369C17.2444 6.55953 16.504 6.39518 15.7682 6.46961C14.2522 6.62005 12.7291 6.69435 11.2051 6.69219C9.6811 6.69435 8.15803 6.62005 6.64196 6.46961C5.90621 6.39518 5.16578 6.55953 4.53668 6.9369C3.90758 7.31428 3.42534 7.88335 3.16552 8.55498C2.58621 10.2604 2.29128 12.0445 2.29186 13.8401C2.24941 13.6296 2.23072 13.4152 2.2361 13.2007C2.23609 9.22472 1.81565 2.64704 11.2051 2.64704ZM3.53274 15.622C3.53274 13.6742 3.53418 11.1238 4.34912 8.97758C4.51202 8.56116 4.8124 8.20868 5.20345 7.97508C5.5945 7.74148 6.05425 7.63987 6.51107 7.68609C8.07062 7.84087 9.63739 7.91736 11.2051 7.91527C12.7728 7.91736 14.3395 7.84087 15.8991 7.68609C16.3559 7.63987 16.8156 7.74148 17.2067 7.97508C17.5977 8.20868 17.8981 8.56116 18.061 8.97758C18.876 11.1238 18.8774 13.6742 18.8774 15.622C18.8786 16.5998 18.681 17.5682 18.2959 18.4718C17.9109 19.3754 17.346 20.1966 16.6334 20.8884C15.9208 21.5802 15.0747 22.129 14.1432 22.5034C13.2118 22.8778 12.2134 23.0706 11.2051 23.0706C10.1968 23.0706 9.19838 22.8778 8.26694 22.5034C7.33551 22.129 6.48932 21.5802 5.77676 20.8884C5.0642 20.1966 4.49925 19.3754 4.11421 18.4718C3.72917 17.5682 3.53156 16.5998 3.53274 15.622ZM11.2051 24.2939C12.1236 24.2938 13.0366 24.1558 13.9116 23.8845C14.127 24.862 14.324 26.1527 14.0058 26.655C13.6244 27.257 11.9337 27.437 11.2051 27.437C10.4765 27.437 8.78583 27.257 8.40443 26.655C8.0862 26.1527 8.28325 24.862 8.49865 23.8845C9.37357 24.1558 10.2866 24.2938 11.2051 24.2939Z" fill="#8E939A"/>
</g>
<defs>
<clipPath id="clip0">
<rect width="21" height="28" fill="white" transform="translate(0.705078 0.973755)"/>
</clipPath>
</defs>
</svg>
