<svg width="19" height="31" viewBox="0 0 19 31" fill="none" xmlns="http://www.w3.org/2000/svg">
<path d="M12.734 28.0289C12.6942 27.5013 12.6124 26.9778 12.4892 26.4633C12.9153 26.2547 13.3199 26.0044 13.697 25.7161L13.7077 25.7081C13.7169 25.701 13.7263 25.6943 13.7355 25.6872C15.1159 24.8583 16.2542 23.6799 17.0358 22.2703C17.8174 20.8608 18.2148 19.2699 18.1879 17.6576L18.1889 17.1393C18.1977 13.9317 18.2091 9.54089 15.5495 6.85662C16.158 6.29539 16.5523 5.53926 16.6645 4.71827C16.7243 4.1408 16.6503 3.55729 16.4481 3.0132C16.246 2.46911 15.9212 1.97911 15.4991 1.58139C14.6131 0.728567 13.4723 0.190746 12.2517 0.0505388C11.9915 0.0170419 11.7294 0.000161596 11.4671 0C9.02205 4.23913e-05 7.06154 1.45113 6.80545 3.4504C6.74744 3.93004 6.79117 4.41655 6.93376 4.87809C5.50722 5.14694 4.1914 5.83111 3.15077 6.84509C0.480151 9.52834 0.49223 13.9273 0.501042 17.1393L0.501994 17.6576C0.475165 19.2699 0.872532 20.8608 1.65413 22.2703C2.43573 23.6799 3.57399 24.8583 4.95442 25.6872C4.96171 25.6928 4.96919 25.6981 4.97649 25.7037L4.9853 25.7104C5.36454 26.0011 5.7717 26.2533 6.20077 26.4633C6.07757 26.9778 5.99568 27.5013 5.95587 28.0289C4.95442 31.4851 13.7355 32.3268 12.734 28.0289ZM5.99504 29.0641C6.03147 29.2874 6.10837 29.5021 6.22195 29.6976C6.38538 29.9642 7.09367 30.8341 9.34496 30.8341C11.5962 30.8341 12.3045 29.9642 12.468 29.6976C12.5815 29.5021 12.6585 29.2874 12.6949 29.0641C12.2779 29.4108 6.96216 30.3454 5.99504 29.0641ZM7.8136 3.58005C8.00563 2.08085 9.58012 1.01846 11.4671 1.01844C11.6862 1.01854 11.905 1.03266 12.1223 1.06069C14.288 1.3392 15.8703 2.9187 15.6564 4.58862C15.5667 5.21399 15.2504 5.78441 14.7679 6.19111C13.3758 5.15997 11.5609 4.63108 9.34496 4.63108C8.87695 4.63289 8.40942 4.66111 7.94458 4.71562C7.81158 4.35288 7.76669 3.96362 7.8136 3.58005ZM9.34496 5.64953C17.5103 5.64953 17.1715 13.1337 17.1715 17.6576C17.1763 18.8803 16.9241 20.0904 16.4315 21.2091C16.4359 21.1838 16.4391 21.1582 16.4432 21.1328C16.4563 21.0516 16.4701 20.9707 16.4805 20.8886C16.4952 20.7719 16.507 20.6544 16.516 20.5362C16.518 20.5104 16.522 20.4851 16.5238 20.4592C16.5276 20.423 16.5295 20.3867 16.5295 20.3503C16.5295 20.3409 16.527 20.3322 16.5268 20.3229C16.5323 20.2077 16.5442 20.0941 16.5442 19.9775C16.5694 18.7379 16.5057 17.4981 16.3535 16.2676L16.2907 15.8312L15.93 15.5784C14.5231 14.5765 13.3367 13.2956 12.4445 11.8151L11.6885 10.5722L10.7822 11.7098C8.73294 14.1718 5.99119 15.9583 2.91412 16.8366L2.23225 17.0417L2.1916 17.7539C2.14571 18.558 2.14571 19.3451 2.14571 19.9775C2.14571 20.1077 2.15837 20.2347 2.16517 20.3633C2.16538 20.3798 2.16213 20.396 2.16315 20.4126C2.16526 20.4471 2.17026 20.4808 2.17285 20.5151C2.18159 20.6333 2.19183 20.7507 2.2062 20.8672C2.21629 20.9488 2.23046 21.0291 2.24322 21.1099C2.24843 21.1429 2.25271 21.1762 2.25835 21.209C1.76577 20.0903 1.51365 18.8803 1.51839 17.6576C1.51842 13.1337 1.17961 5.64953 9.34496 5.64953ZM3.16214 19.9775C3.16214 19.3197 3.1626 18.5791 3.20638 17.812C6.48375 16.8792 9.40206 14.9732 11.5766 12.3451C12.5399 13.9473 13.8238 15.3324 15.3475 16.4131C15.4923 17.5954 15.5525 18.7866 15.5278 19.9775C15.5287 20.7917 15.3695 21.598 15.0592 22.3505C14.7489 23.1029 14.2936 23.7867 13.7194 24.3627C13.1452 24.9388 12.4633 25.3957 11.7127 25.7075C10.9621 26.0193 10.1575 26.1798 9.34494 26.1798C8.53239 26.1798 7.72782 26.0193 6.97721 25.7075C6.2266 25.3957 5.54469 24.9388 4.97047 24.3627C4.39624 23.7867 3.94097 23.1029 3.63068 22.3505C3.32039 21.598 3.16119 20.7916 3.16214 19.9775ZM9.34496 27.1984C10.0852 27.1984 10.8209 27.0835 11.526 26.8576C11.6996 27.6715 11.8584 28.7463 11.6019 29.1645C11.5324 29.2674 11.439 29.3519 11.3298 29.4108C11.1461 29.512 10.9498 29.5882 10.7459 29.6375C10.2874 29.7512 9.81728 29.811 9.34496 29.8156C8.75781 29.8156 7.39535 29.6658 7.08801 29.1645C6.83155 28.7462 6.99037 27.6715 7.16395 26.8576C7.86901 27.0834 8.60475 27.1984 9.34496 27.1984Z" fill="#486BAD"/>
<path d="M9.34496 5.64953C17.5103 5.64953 17.1715 13.1337 17.1715 17.6576C17.1763 18.8803 16.9241 20.0904 16.4315 21.2091C16.4359 21.1838 16.4391 21.1582 16.4432 21.1328C16.4563 21.0516 16.4701 20.9707 16.4805 20.8886C16.4952 20.7719 16.507 20.6544 16.516 20.5362C16.518 20.5104 16.522 20.4851 16.5238 20.4592C16.5276 20.423 16.5295 20.3867 16.5295 20.3503C16.5295 20.3409 16.527 20.3322 16.5268 20.3229C16.5323 20.2077 16.5442 20.0941 16.5442 19.9775C16.5694 18.7379 16.5057 17.4981 16.3535 16.2676L16.2907 15.8312L15.93 15.5784C14.5231 14.5765 13.3367 13.2956 12.4445 11.8151L11.6885 10.5722L10.7822 11.7098C8.73294 14.1718 5.99119 15.9583 2.91412 16.8366L2.23225 17.0417L2.1916 17.7539C2.14571 18.558 2.14571 19.3451 2.14571 19.9775C2.14571 20.1077 2.15837 20.2347 2.16517 20.3633C2.16538 20.3798 2.16213 20.396 2.16315 20.4126C2.16526 20.4471 2.17026 20.4808 2.17285 20.5151C2.18159 20.6333 2.19183 20.7507 2.2062 20.8672C2.21629 20.9488 2.23046 21.0291 2.24322 21.1099C2.24843 21.1429 2.25271 21.1762 2.25835 21.209C1.76577 20.0903 1.51365 18.8803 1.51839 17.6576C1.51842 13.1337 1.17961 5.64953 9.34496 5.64953Z" fill="#486BAD"/>
<path d="M7.8136 3.58005C8.00563 2.08085 9.58012 1.01846 11.4671 1.01844C11.6862 1.01854 11.905 1.03266 12.1223 1.06069C14.288 1.3392 15.8703 2.9187 15.6564 4.58862C15.5667 5.21399 15.2504 5.78441 14.7679 6.19111C13.3758 5.15997 11.5609 4.63108 9.34496 4.63108C8.87695 4.63289 8.40942 4.66111 7.94458 4.71562C7.81158 4.35288 7.76669 3.96362 7.8136 3.58005Z" fill="#486BAD"/>
</svg>
