<svg width="20" height="32" viewBox="0 0 20 32" fill="none" xmlns="http://www.w3.org/2000/svg">
<g clip-path="url(#clip0)">
<path d="M13.0941 28.1152C13.0544 27.5876 12.9725 27.0641 12.8493 26.5496C13.2755 26.341 13.68 26.0907 14.0571 25.8024L14.0678 25.7944C14.077 25.7873 14.0864 25.7806 14.0956 25.7735C15.476 24.9446 16.6143 23.7662 17.3959 22.3566C18.1775 20.9471 18.5749 19.3562 18.548 17.7439L18.549 17.2256C18.5578 14.018 18.5692 9.62719 15.9096 6.94293C16.5181 6.38169 16.9124 5.62556 17.0246 4.80458C17.0844 4.22711 17.0104 3.6436 16.8082 3.0995C16.6061 2.55541 16.2813 2.06542 15.8592 1.6677C14.9732 0.814871 13.8324 0.27705 12.6118 0.136843C12.3516 0.103346 12.0896 0.0864653 11.8272 0.0863037C9.38216 0.0863461 7.42165 1.53743 7.16555 3.53671C7.10755 4.01635 7.15128 4.50285 7.29387 4.96439C5.86733 5.23325 4.55151 5.91742 3.51088 6.9314C0.840258 9.61465 0.852337 14.0136 0.86115 17.2256L0.862102 17.7439C0.835272 19.3562 1.23264 20.9471 2.01424 22.3566C2.79583 23.7662 3.9341 24.9446 5.31453 25.7735C5.32181 25.7791 5.3293 25.7844 5.3366 25.79L5.34541 25.7967C5.72465 26.0874 6.13181 26.3396 6.56088 26.5496C6.43768 27.0641 6.35579 27.5876 6.31598 28.1152C5.31453 31.5714 14.0956 32.4131 13.0941 28.1152ZM6.35514 29.1504C6.39158 29.3737 6.46848 29.5884 6.58206 29.7839C6.74549 30.0505 7.45378 30.9204 9.70507 30.9204C11.9564 30.9204 12.6646 30.0505 12.8281 29.7839C12.9417 29.5884 13.0186 29.3737 13.055 29.1504C12.638 29.4971 7.32227 30.4317 6.35514 29.1504ZM8.17371 3.66635C8.36574 2.16716 9.94023 1.10477 11.8272 1.10475C12.0463 1.10485 12.2651 1.11896 12.4824 1.147C14.6481 1.42551 16.2304 3.00501 16.0165 4.67493C15.9268 5.3003 15.6105 5.87072 15.128 6.27741C13.7359 5.24627 11.921 4.71739 9.70507 4.71739C9.23706 4.71919 8.76952 4.74742 8.30468 4.80192C8.17169 4.43918 8.1268 4.04993 8.17371 3.66635ZM9.70507 5.73583C17.8704 5.73583 17.5316 13.22 17.5316 17.7439C17.5364 18.9666 17.2842 20.1767 16.7917 21.2954C16.796 21.2701 16.7992 21.2445 16.8033 21.2191C16.8164 21.1379 16.8302 21.057 16.8406 20.9749C16.8553 20.8582 16.8672 20.7407 16.8761 20.6225C16.8781 20.5967 16.8821 20.5714 16.8839 20.5455C16.8877 20.5093 16.8896 20.473 16.8896 20.4366C16.8896 20.4272 16.8871 20.4186 16.8869 20.4093C16.8924 20.294 16.9043 20.1804 16.9043 20.0638C16.9295 18.8242 16.8658 17.5844 16.7136 16.3539L16.6508 15.9175L16.2901 15.6647C14.8832 14.6628 13.6968 13.3819 12.8046 11.9014L12.0486 10.6585L11.1423 11.7961C9.09305 14.2581 6.3513 16.0446 3.27422 16.9229L2.59236 17.128L2.5517 17.8402C2.50582 18.6443 2.50582 19.4314 2.50582 20.0638C2.50582 20.194 2.51847 20.321 2.52528 20.4496C2.52549 20.4661 2.52224 20.4823 2.52325 20.4989C2.52537 20.5334 2.53037 20.5671 2.53295 20.6014C2.5417 20.7196 2.55194 20.837 2.56631 20.9535C2.5764 21.0351 2.59056 21.1154 2.60332 21.1962C2.60854 21.2292 2.61282 21.2625 2.61846 21.2953C2.12588 20.1766 1.87376 18.9666 1.8785 17.7439C1.87853 13.22 1.53972 5.73583 9.70507 5.73583ZM3.52225 20.0638C3.52225 19.406 3.5227 18.6654 3.56648 17.8983C6.84386 16.9655 9.76217 15.0595 11.9367 12.4314C12.9 14.0336 14.1839 15.4187 15.7076 16.4994C15.8524 17.6817 15.9127 18.8729 15.8879 20.0638C15.8888 20.878 15.7296 21.6843 15.4193 22.4368C15.109 23.1892 14.6537 23.873 14.0795 24.449C13.5053 25.0251 12.8234 25.482 12.0728 25.7938C11.3222 26.1056 10.5176 26.2661 9.70505 26.2661C8.8925 26.2661 8.08792 26.1056 7.33732 25.7938C6.58671 25.482 5.9048 25.0251 5.33057 24.449C4.75635 23.873 4.30108 23.1892 3.99079 22.4368C3.6805 21.6843 3.5213 20.8779 3.52225 20.0638ZM9.70507 27.2847C10.4453 27.2847 11.181 27.1698 11.8861 26.9439C12.0597 27.7578 12.2185 28.8326 11.962 29.2508C11.8925 29.3537 11.7991 29.4382 11.6899 29.4971C11.5062 29.5983 11.3099 29.6745 11.1061 29.7238C10.6475 29.8375 10.1774 29.8973 9.70507 29.9019C9.11792 29.9019 7.75546 29.7521 7.44812 29.2508C7.19166 28.8325 7.35048 27.7578 7.52406 26.9439C8.22911 27.1697 8.96485 27.2847 9.70507 27.2847Z" fill="#8E939A"/>
</g>
<defs>
<clipPath id="clip0">
<rect width="19" height="32" fill="white" transform="translate(0.5)"/>
</clipPath>
</defs>
</svg>
