<svg width="32" height="9" viewBox="0 0 32 9" fill="none" xmlns="http://www.w3.org/2000/svg">
<path d="M5.11364 0.272705V8.99998H4.05682V0.272705H5.11364Z" fill="black" fill-opacity="0.5"/>
<path d="M7.2326 0.272705H8.49397L11.4599 7.51702H11.5622L14.5281 0.272705H15.7894V8.99998H14.8008V2.3693H14.7156L11.9883 8.99998H11.0337L8.30647 2.3693H8.22124V8.99998H7.2326V0.272705Z" fill="black" fill-opacity="0.5"/>
<path d="M20.6016 8.99998H17.9084V0.272705H20.7209C21.5675 0.272705 22.2919 0.447421 22.8942 0.796853C23.4965 1.14344 23.9581 1.64202 24.2791 2.29259C24.6001 2.94032 24.7607 3.71589 24.7607 4.6193C24.7607 5.52839 24.5987 6.31106 24.2749 6.96731C23.951 7.62072 23.4794 8.12356 22.8601 8.47583C22.2408 8.82526 21.4879 8.99998 20.6016 8.99998ZM18.9652 8.06248H20.5334C21.255 8.06248 21.853 7.92327 22.3274 7.64486C22.8019 7.36646 23.1555 6.97015 23.3885 6.45594C23.6215 5.94174 23.7379 5.32952 23.7379 4.6193C23.7379 3.91475 23.6229 3.30822 23.3928 2.79969C23.1626 2.28833 22.8189 1.89628 22.3615 1.62356C21.9041 1.34799 21.3345 1.21021 20.6527 1.21021H18.9652V8.06248Z" fill="black" fill-opacity="0.5"/>
<path d="M27.5902 0.272705V8.99998H26.5334V0.272705H27.5902Z" fill="black" fill-opacity="0.5"/>
<line x1="31.064" y1="2.49589" x2="0.063984" y2="6.49589" stroke="black" stroke-opacity="0.5"/>
</svg>
